<svg width="57" height="57" viewBox="0 0 57 57" fill="none" xmlns="http://www.w3.org/2000/svg">
<path d="M53.0967 31.8735H2.90326C1.29863 31.8735 0 30.5598 0 28.9368C0 27.3137 1.2987 26 2.90326 26L53.0967 26.0005C54.7014 26.0005 56 27.3142 56 28.9373C55.9995 30.5599 54.7008 31.8735 53.0967 31.8735V31.8735Z" fill="black"/>
<path d="M53.0967 5.87352H2.90326C1.29863 5.87352 0 4.55984 0 2.93676C0 1.31368 1.2987 0 2.90326 0L53.0967 0.000539059C54.7014 0.000539059 56 1.31422 56 2.9373C55.9995 4.55989 54.7008 5.87351 53.0967 5.87351V5.87352Z" fill="black"/>
<path d="M53.0967 56.8735H2.90326C1.29863 56.8735 0 55.5598 0 53.9368C0 52.3137 1.2987 51 2.90326 51L53.0967 51.0005C54.7014 51.0005 56 52.3142 56 53.9373C55.9995 55.5599 54.7008 56.8735 53.0967 56.8735V56.8735Z" fill="black"/>
</svg>
