<svg width="149" height="12" viewBox="0 0 149 12" fill="none" xmlns="http://www.w3.org/2000/svg">
<path d="M1 5.5C0.723858 5.5 0.5 5.72386 0.5 6C0.5 6.27614 0.723858 6.5 1 6.5L1 5.5ZM145.887 5.99999L143 3.11324L140.113 5.99999L143 8.88674L145.887 5.99999ZM3.02857 6.5C3.30471 6.5 3.52857 6.27614 3.52857 6C3.52857 5.72386 3.30471 5.5 3.02857 5.5L3.02857 6.5ZM9.11429 5.5C8.83814 5.5 8.61429 5.72386 8.61429 6C8.61429 6.27614 8.83814 6.5 9.11429 6.5L9.11429 5.5ZM13.1714 6.5C13.4476 6.5 13.6714 6.27614 13.6714 6C13.6714 5.72386 13.4476 5.5 13.1714 5.5L13.1714 6.5ZM19.2571 5.5C18.981 5.5 18.7571 5.72386 18.7571 6C18.7571 6.27614 18.981 6.5 19.2571 6.5L19.2571 5.5ZM23.3143 6.5C23.5904 6.5 23.8143 6.27614 23.8143 6C23.8143 5.72386 23.5904 5.5 23.3143 5.5L23.3143 6.5ZM29.4 5.5C29.1239 5.5 28.9 5.72386 28.9 6C28.9 6.27614 29.1239 6.5 29.4 6.5L29.4 5.5ZM33.4571 6.5C33.7333 6.5 33.9571 6.27614 33.9571 6C33.9571 5.72385 33.7333 5.5 33.4571 5.5L33.4571 6.5ZM39.5429 5.5C39.2667 5.5 39.0429 5.72385 39.0429 6C39.0429 6.27614 39.2667 6.5 39.5429 6.5L39.5429 5.5ZM43.6 6.5C43.8761 6.5 44.1 6.27614 44.1 6C44.1 5.72385 43.8761 5.5 43.6 5.5L43.6 6.5ZM49.6857 5.5C49.4096 5.5 49.1857 5.72385 49.1857 6C49.1857 6.27614 49.4096 6.5 49.6857 6.5L49.6857 5.5ZM53.7429 6.5C54.019 6.5 54.2429 6.27614 54.2429 6C54.2429 5.72385 54.019 5.5 53.7429 5.5L53.7429 6.5ZM59.8286 5.49999C59.5524 5.49999 59.3286 5.72385 59.3286 5.99999C59.3286 6.27614 59.5524 6.49999 59.8286 6.49999L59.8286 5.49999ZM63.8857 6.49999C64.1619 6.49999 64.3857 6.27614 64.3857 5.99999C64.3857 5.72385 64.1619 5.49999 63.8857 5.49999L63.8857 6.49999ZM69.9714 5.49999C69.6953 5.49999 69.4714 5.72385 69.4714 5.99999C69.4714 6.27614 69.6953 6.49999 69.9714 6.49999L69.9714 5.49999ZM74.0286 6.49999C74.3047 6.49999 74.5286 6.27614 74.5286 5.99999C74.5286 5.72385 74.3047 5.49999 74.0286 5.49999L74.0286 6.49999ZM80.1143 5.49999C79.8381 5.49999 79.6143 5.72385 79.6143 5.99999C79.6143 6.27614 79.8382 6.49999 80.1143 6.49999L80.1143 5.49999ZM84.1714 6.49999C84.4476 6.49999 84.6714 6.27614 84.6714 5.99999C84.6714 5.72385 84.4476 5.49999 84.1714 5.49999L84.1714 6.49999ZM90.2572 5.49999C89.981 5.49999 89.7572 5.72385 89.7572 5.99999C89.7572 6.27613 89.981 6.49999 90.2572 6.49999L90.2572 5.49999ZM94.3143 6.49999C94.5904 6.49999 94.8143 6.27613 94.8143 5.99999C94.8143 5.72385 94.5904 5.49999 94.3143 5.49999L94.3143 6.49999ZM100.4 5.49999C100.124 5.49999 99.9 5.72385 99.9 5.99999C99.9 6.27613 100.124 6.49999 100.4 6.49999L100.4 5.49999ZM104.457 6.49999C104.733 6.49999 104.957 6.27613 104.957 5.99999C104.957 5.72385 104.733 5.49999 104.457 5.49999L104.457 6.49999ZM110.543 5.49999C110.267 5.49999 110.043 5.72385 110.043 5.99999C110.043 6.27613 110.267 6.49999 110.543 6.49999L110.543 5.49999ZM114.6 6.49999C114.876 6.49999 115.1 6.27613 115.1 5.99999C115.1 5.72385 114.876 5.49999 114.6 5.49999L114.6 6.49999ZM120.686 5.49999C120.41 5.49999 120.186 5.72385 120.186 5.99999C120.186 6.27613 120.41 6.49999 120.686 6.49999L120.686 5.49999ZM124.743 6.49999C125.019 6.49999 125.243 6.27613 125.243 5.99999C125.243 5.72385 125.019 5.49999 124.743 5.49999L124.743 6.49999ZM130.829 5.49999C130.552 5.49999 130.329 5.72385 130.329 5.99999C130.329 6.27613 130.552 6.49999 130.829 6.49999L130.829 5.49999ZM134.886 6.49999C135.162 6.49999 135.386 6.27613 135.386 5.99999C135.386 5.72385 135.162 5.49999 134.886 5.49999L134.886 6.49999ZM140.971 5.49999C140.695 5.49999 140.471 5.72385 140.471 5.99999C140.471 6.27613 140.695 6.49999 140.971 6.49999L140.971 5.49999ZM1 6.5L3.02857 6.5L3.02857 5.5L1 5.5L1 6.5ZM9.11429 6.5L13.1714 6.5L13.1714 5.5L9.11429 5.5L9.11429 6.5ZM19.2571 6.5L23.3143 6.5L23.3143 5.5L19.2571 5.5L19.2571 6.5ZM29.4 6.5L33.4571 6.5L33.4571 5.5L29.4 5.5L29.4 6.5ZM39.5429 6.5L43.6 6.5L43.6 5.5L39.5429 5.5L39.5429 6.5ZM49.6857 6.5L53.7429 6.5L53.7429 5.5L49.6857 5.5L49.6857 6.5ZM59.8286 6.49999L63.8857 6.49999L63.8857 5.49999L59.8286 5.49999L59.8286 6.49999ZM69.9714 6.49999L74.0286 6.49999L74.0286 5.49999L69.9714 5.49999L69.9714 6.49999ZM80.1143 6.49999L84.1714 6.49999L84.1714 5.49999L80.1143 5.49999L80.1143 6.49999ZM90.2572 6.49999L94.3143 6.49999L94.3143 5.49999L90.2572 5.49999L90.2572 6.49999ZM100.4 6.49999L104.457 6.49999L104.457 5.49999L100.4 5.49999L100.4 6.49999ZM110.543 6.49999L114.6 6.49999L114.6 5.49999L110.543 5.49999L110.543 6.49999ZM120.686 6.49999L124.743 6.49999L124.743 5.49999L120.686 5.49999L120.686 6.49999ZM130.829 6.49999L134.886 6.49999L134.886 5.49999L130.829 5.49999L130.829 6.49999ZM140.971 6.49999L143 6.49999L143 5.49999L140.971 5.49999L140.971 6.49999ZM1 5C0.447715 5 -4.82823e-08 5.44772 0 6C4.82823e-08 6.55228 0.447715 7 1 7L1 5ZM148.773 5.99999L143 0.226485L137.227 5.99999L143 11.7735L148.773 5.99999ZM3.02857 7C3.58086 7 4.02857 6.55228 4.02857 6C4.02857 5.44771 3.58086 5 3.02857 5L3.02857 7ZM9.11429 5C8.562 5 8.11429 5.44771 8.11429 6C8.11429 6.55228 8.562 7 9.11429 7L9.11429 5ZM13.1714 7C13.7237 7 14.1714 6.55228 14.1714 6C14.1714 5.44771 13.7237 5 13.1714 5L13.1714 7ZM19.2571 5C18.7049 5 18.2571 5.44771 18.2571 6C18.2571 6.55228 18.7049 7 19.2571 7L19.2571 5ZM23.3143 7C23.8666 7 24.3143 6.55228 24.3143 6C24.3143 5.44771 23.8666 5 23.3143 5L23.3143 7ZM29.4 5C28.8477 5 28.4 5.44771 28.4 6C28.4 6.55228 28.8477 7 29.4 7L29.4 5ZM33.4571 7C34.0094 7 34.4571 6.55228 34.4571 6C34.4571 5.44771 34.0094 5 33.4571 5L33.4571 7ZM39.5429 5C38.9906 5 38.5429 5.44771 38.5429 6C38.5429 6.55228 38.9906 7 39.5429 7L39.5429 5ZM43.6 7C44.1523 7 44.6 6.55228 44.6 6C44.6 5.44771 44.1523 5 43.6 5L43.6 7ZM49.6857 5C49.1334 5 48.6857 5.44771 48.6857 6C48.6857 6.55228 49.1334 7 49.6857 7L49.6857 5ZM53.7429 7C54.2951 7 54.7429 6.55228 54.7429 6C54.7429 5.44771 54.2951 5 53.7429 5L53.7429 7ZM59.8286 4.99999C59.2763 4.99999 58.8286 5.44771 58.8286 5.99999C58.8286 6.55228 59.2763 6.99999 59.8286 6.99999L59.8286 4.99999ZM63.8857 6.99999C64.438 6.99999 64.8857 6.55228 64.8857 5.99999C64.8857 5.44771 64.438 4.99999 63.8857 4.99999L63.8857 6.99999ZM69.9714 4.99999C69.4192 4.99999 68.9714 5.44771 68.9714 5.99999C68.9714 6.55228 69.4192 6.99999 69.9714 6.99999L69.9714 4.99999ZM74.0286 6.99999C74.5809 6.99999 75.0286 6.55228 75.0286 5.99999C75.0286 5.44771 74.5809 4.99999 74.0286 4.99999L74.0286 6.99999ZM80.1143 4.99999C79.562 4.99999 79.1143 5.44771 79.1143 5.99999C79.1143 6.55228 79.562 6.99999 80.1143 6.99999L80.1143 4.99999ZM84.1714 6.99999C84.7237 6.99999 85.1714 6.55228 85.1714 5.99999C85.1714 5.44771 84.7237 4.99999 84.1714 4.99999L84.1714 6.99999ZM90.2572 4.99999C89.7049 4.99999 89.2572 5.44771 89.2572 5.99999C89.2572 6.55228 89.7049 6.99999 90.2572 6.99999L90.2572 4.99999ZM94.3143 6.99999C94.8666 6.99999 95.3143 6.55228 95.3143 5.99999C95.3143 5.44771 94.8666 4.99999 94.3143 4.99999L94.3143 6.99999ZM100.4 4.99999C99.8477 4.99999 99.4 5.44771 99.4 5.99999C99.4 6.55228 99.8477 6.99999 100.4 6.99999L100.4 4.99999ZM104.457 6.99999C105.009 6.99999 105.457 6.55228 105.457 5.99999C105.457 5.44771 105.009 4.99999 104.457 4.99999L104.457 6.99999ZM110.543 4.99999C109.991 4.99999 109.543 5.44771 109.543 5.99999C109.543 6.55228 109.991 6.99999 110.543 6.99999L110.543 4.99999ZM114.6 6.99999C115.152 6.99999 115.6 6.55227 115.6 5.99999C115.6 5.44771 115.152 4.99999 114.6 4.99999L114.6 6.99999ZM120.686 4.99999C120.133 4.99999 119.686 5.4477 119.686 5.99999C119.686 6.55227 120.133 6.99999 120.686 6.99999L120.686 4.99999ZM124.743 6.99999C125.295 6.99999 125.743 6.55227 125.743 5.99999C125.743 5.4477 125.295 4.99999 124.743 4.99999L124.743 6.99999ZM130.829 4.99999C130.276 4.99999 129.829 5.4477 129.829 5.99999C129.829 6.55227 130.276 6.99999 130.829 6.99999L130.829 4.99999ZM134.886 6.99999C135.438 6.99999 135.886 6.55227 135.886 5.99999C135.886 5.4477 135.438 4.99999 134.886 4.99999L134.886 6.99999ZM140.971 4.99999C140.419 4.99999 139.971 5.4477 139.971 5.99999C139.971 6.55227 140.419 6.99999 140.971 6.99999L140.971 4.99999ZM1 7L3.02857 7L3.02857 5L1 5L1 7ZM9.11429 7L13.1714 7L13.1714 5L9.11429 5L9.11429 7ZM19.2571 7L23.3143 7L23.3143 5L19.2571 5L19.2571 7ZM29.4 7L33.4571 7L33.4571 5L29.4 5L29.4 7ZM39.5429 7L43.6 7L43.6 5L39.5429 5L39.5429 7ZM49.6857 7L53.7429 7L53.7429 5L49.6857 5L49.6857 7ZM59.8286 6.99999L63.8857 6.99999L63.8857 4.99999L59.8286 4.99999L59.8286 6.99999ZM69.9714 6.99999L74.0286 6.99999L74.0286 4.99999L69.9714 4.99999L69.9714 6.99999ZM80.1143 6.99999L84.1714 6.99999L84.1714 4.99999L80.1143 4.99999L80.1143 6.99999ZM90.2572 6.99999L94.3143 6.99999L94.3143 4.99999L90.2572 4.99999L90.2572 6.99999ZM100.4 6.99999L104.457 6.99999L104.457 4.99999L100.4 4.99999L100.4 6.99999ZM110.543 6.99999L114.6 6.99999L114.6 4.99999L110.543 4.99999L110.543 6.99999ZM120.686 6.99999L124.743 6.99999L124.743 4.99999L120.686 4.99999L120.686 6.99999ZM130.829 6.99999L134.886 6.99999L134.886 4.99999L130.829 4.99999L130.829 6.99999ZM140.971 6.99999L143 6.99999L143 4.99999L140.971 4.99999L140.971 6.99999Z" fill="#515151"/>
</svg>
