<svg width="133" height="12" viewBox="0 0 133 12" fill="none" xmlns="http://www.w3.org/2000/svg">
<path d="M3.11325 6L6 8.88675L8.88675 6L6 3.11325L3.11325 6ZM7.95385 6.5C8.22999 6.5 8.45385 6.27614 8.45385 6C8.45385 5.72386 8.22999 5.5 7.95385 5.5L7.95385 6.5ZM13.8154 5.5C13.5392 5.5 13.3154 5.72386 13.3154 6C13.3154 6.27614 13.5392 6.5 13.8154 6.5L13.8154 5.5ZM17.7231 6.5C17.9992 6.5 18.2231 6.27614 18.2231 6C18.2231 5.72386 17.9992 5.5 17.7231 5.5L17.7231 6.5ZM23.5846 5.5C23.3085 5.5 23.0846 5.72386 23.0846 6C23.0846 6.27614 23.3085 6.5 23.5846 6.5L23.5846 5.5ZM27.4923 6.5C27.7684 6.5 27.9923 6.27614 27.9923 6C27.9923 5.72386 27.7684 5.5 27.4923 5.5L27.4923 6.5ZM33.3538 5.5C33.0777 5.5 32.8538 5.72386 32.8538 6C32.8538 6.27614 33.0777 6.5 33.3538 6.5L33.3538 5.5ZM37.2615 6.5C37.5377 6.5 37.7615 6.27614 37.7615 6C37.7615 5.72385 37.5377 5.5 37.2615 5.5L37.2615 6.5ZM43.1231 5.5C42.8469 5.5 42.6231 5.72385 42.6231 6C42.6231 6.27614 42.8469 6.5 43.1231 6.5L43.1231 5.5ZM47.0308 6.5C47.3069 6.5 47.5308 6.27614 47.5308 6C47.5308 5.72385 47.3069 5.5 47.0308 5.5L47.0308 6.5ZM52.8923 5.5C52.6162 5.5 52.3923 5.72385 52.3923 6C52.3923 6.27614 52.6162 6.5 52.8923 6.5L52.8923 5.5ZM56.8 6.5C57.0761 6.5 57.3 6.27614 57.3 6C57.3 5.72385 57.0761 5.5 56.8 5.5L56.8 6.5ZM62.6615 5.5C62.3854 5.5 62.1615 5.72385 62.1615 6C62.1615 6.27614 62.3854 6.5 62.6615 6.5L62.6615 5.5ZM66.5692 6.49999C66.8454 6.49999 67.0692 6.27614 67.0692 5.99999C67.0692 5.72385 66.8454 5.49999 66.5692 5.49999L66.5692 6.49999ZM72.4308 5.49999C72.1546 5.49999 71.9308 5.72385 71.9308 5.99999C71.9308 6.27614 72.1546 6.49999 72.4308 6.49999L72.4308 5.49999ZM76.3385 6.49999C76.6146 6.49999 76.8385 6.27614 76.8385 5.99999C76.8385 5.72385 76.6146 5.49999 76.3385 5.49999L76.3385 6.49999ZM82.2 5.49999C81.9239 5.49999 81.7 5.72385 81.7 5.99999C81.7 6.27614 81.9239 6.49999 82.2 6.49999L82.2 5.49999ZM86.1077 6.49999C86.3838 6.49999 86.6077 6.27614 86.6077 5.99999C86.6077 5.72385 86.3838 5.49999 86.1077 5.49999L86.1077 6.49999ZM91.9692 5.49999C91.6931 5.49999 91.4692 5.72385 91.4692 5.99999C91.4692 6.27613 91.6931 6.49999 91.9692 6.49999L91.9692 5.49999ZM95.8769 6.49999C96.1531 6.49999 96.3769 6.27613 96.3769 5.99999C96.3769 5.72385 96.1531 5.49999 95.8769 5.49999L95.8769 6.49999ZM101.738 5.49999C101.462 5.49999 101.238 5.72385 101.238 5.99999C101.238 6.27613 101.462 6.49999 101.738 6.49999L101.738 5.49999ZM105.646 6.49999C105.922 6.49999 106.146 6.27613 106.146 5.99999C106.146 5.72385 105.922 5.49999 105.646 5.49999L105.646 6.49999ZM111.508 5.49999C111.232 5.49999 111.008 5.72385 111.008 5.99999C111.008 6.27613 111.232 6.49999 111.508 6.49999L111.508 5.49999ZM115.415 6.49999C115.692 6.49999 115.915 6.27613 115.915 5.99999C115.915 5.72385 115.692 5.49999 115.415 5.49999L115.415 6.49999ZM121.277 5.49999C121.001 5.49999 120.777 5.72385 120.777 5.99999C120.777 6.27613 121.001 6.49999 121.277 6.49999L121.277 5.49999ZM125.185 6.49999C125.461 6.49999 125.685 6.27613 125.685 5.99999C125.685 5.72385 125.461 5.49999 125.185 5.49999L125.185 6.49999ZM131.046 5.49999C130.77 5.49999 130.546 5.72385 130.546 5.99999C130.546 6.27613 130.77 6.49999 131.046 6.49999L131.046 5.49999ZM6 6.5L7.95385 6.5L7.95385 5.5L6 5.5L6 6.5ZM13.8154 6.5L17.7231 6.5L17.7231 5.5L13.8154 5.5L13.8154 6.5ZM23.5846 6.5L27.4923 6.5L27.4923 5.5L23.5846 5.5L23.5846 6.5ZM33.3538 6.5L37.2615 6.5L37.2615 5.5L33.3538 5.5L33.3538 6.5ZM43.1231 6.5L47.0308 6.5L47.0308 5.5L43.1231 5.5L43.1231 6.5ZM52.8923 6.5L56.8 6.5L56.8 5.5L52.8923 5.5L52.8923 6.5ZM62.6615 6.5L66.5692 6.49999L66.5692 5.49999L62.6615 5.5L62.6615 6.5ZM72.4308 6.49999L76.3385 6.49999L76.3385 5.49999L72.4308 5.49999L72.4308 6.49999ZM82.2 6.49999L86.1077 6.49999L86.1077 5.49999L82.2 5.49999L82.2 6.49999ZM91.9692 6.49999L95.8769 6.49999L95.8769 5.49999L91.9692 5.49999L91.9692 6.49999ZM101.738 6.49999L105.646 6.49999L105.646 5.49999L101.738 5.49999L101.738 6.49999ZM111.508 6.49999L115.415 6.49999L115.415 5.49999L111.508 5.49999L111.508 6.49999ZM121.277 6.49999L125.185 6.49999L125.185 5.49999L121.277 5.49999L121.277 6.49999ZM131.046 6.49999L133 6.49999L133 5.49999L131.046 5.49999L131.046 6.49999ZM0.226497 6L6 11.7735L11.7735 6L6 0.226497L0.226497 6ZM7.95385 7C8.50613 7 8.95385 6.55228 8.95385 6C8.95385 5.44771 8.50613 5 7.95385 5L7.95385 7ZM13.8154 5C13.2631 5 12.8154 5.44771 12.8154 6C12.8154 6.55228 13.2631 7 13.8154 7L13.8154 5ZM17.7231 7C18.2754 7 18.7231 6.55228 18.7231 6C18.7231 5.44771 18.2754 5 17.7231 5L17.7231 7ZM23.5846 5C23.0323 5 22.5846 5.44771 22.5846 6C22.5846 6.55228 23.0323 7 23.5846 7L23.5846 5ZM27.4923 7C28.0446 7 28.4923 6.55228 28.4923 6C28.4923 5.44771 28.0446 5 27.4923 5L27.4923 7ZM33.3538 5C32.8016 5 32.3538 5.44771 32.3538 6C32.3538 6.55228 32.8016 7 33.3538 7L33.3538 5ZM37.2615 7C37.8138 7 38.2615 6.55228 38.2615 6C38.2615 5.44771 37.8138 5 37.2615 5L37.2615 7ZM43.1231 5C42.5708 5 42.1231 5.44771 42.1231 6C42.1231 6.55228 42.5708 7 43.1231 7L43.1231 5ZM47.0308 7C47.5831 7 48.0308 6.55228 48.0308 6C48.0308 5.44771 47.5831 5 47.0308 5L47.0308 7ZM52.8923 5C52.34 5 51.8923 5.44771 51.8923 6C51.8923 6.55228 52.34 7 52.8923 7L52.8923 5ZM56.8 7C57.3523 7 57.8 6.55228 57.8 6C57.8 5.44771 57.3523 5 56.8 5L56.8 7ZM62.6615 5C62.1093 5 61.6615 5.44771 61.6615 6C61.6615 6.55228 62.1093 7 62.6615 7L62.6615 5ZM66.5692 6.99999C67.1215 6.99999 67.5692 6.55228 67.5692 5.99999C67.5692 5.44771 67.1215 4.99999 66.5692 4.99999L66.5692 6.99999ZM72.4308 4.99999C71.8785 4.99999 71.4308 5.44771 71.4308 5.99999C71.4308 6.55228 71.8785 6.99999 72.4308 6.99999L72.4308 4.99999ZM76.3385 6.99999C76.8907 6.99999 77.3385 6.55228 77.3385 5.99999C77.3385 5.44771 76.8907 4.99999 76.3385 4.99999L76.3385 6.99999ZM82.2 4.99999C81.6477 4.99999 81.2 5.44771 81.2 5.99999C81.2 6.55228 81.6477 6.99999 82.2 6.99999L82.2 4.99999ZM86.1077 6.99999C86.66 6.99999 87.1077 6.55228 87.1077 5.99999C87.1077 5.44771 86.66 4.99999 86.1077 4.99999L86.1077 6.99999ZM91.9692 4.99999C91.417 4.99999 90.9692 5.44771 90.9692 5.99999C90.9692 6.55228 91.417 6.99999 91.9692 6.99999L91.9692 4.99999ZM95.8769 6.99999C96.4292 6.99999 96.8769 6.55228 96.8769 5.99999C96.8769 5.44771 96.4292 4.99999 95.8769 4.99999L95.8769 6.99999ZM101.738 4.99999C101.186 4.99999 100.738 5.44771 100.738 5.99999C100.738 6.55228 101.186 6.99999 101.738 6.99999L101.738 4.99999ZM105.646 6.99999C106.198 6.99999 106.646 6.55228 106.646 5.99999C106.646 5.44771 106.198 4.99999 105.646 4.99999L105.646 6.99999ZM111.508 4.99999C110.955 4.99999 110.508 5.44771 110.508 5.99999C110.508 6.55228 110.955 6.99999 111.508 6.99999L111.508 4.99999ZM115.415 6.99999C115.968 6.99999 116.415 6.55228 116.415 5.99999C116.415 5.44771 115.968 4.99999 115.415 4.99999L115.415 6.99999ZM121.277 4.99999C120.725 4.99999 120.277 5.44771 120.277 5.99999C120.277 6.55227 120.725 6.99999 121.277 6.99999L121.277 4.99999ZM125.185 6.99999C125.737 6.99999 126.185 6.55227 126.185 5.99999C126.185 5.4477 125.737 4.99999 125.185 4.99999L125.185 6.99999ZM131.046 4.99999C130.494 4.99999 130.046 5.4477 130.046 5.99999C130.046 6.55227 130.494 6.99999 131.046 6.99999L131.046 4.99999ZM6 7L7.95385 7L7.95385 5L6 5L6 7ZM13.8154 7L17.7231 7L17.7231 5L13.8154 5L13.8154 7ZM23.5846 7L27.4923 7L27.4923 5L23.5846 5L23.5846 7ZM33.3538 7L37.2615 7L37.2615 5L33.3538 5L33.3538 7ZM43.1231 7L47.0308 7L47.0308 5L43.1231 5L43.1231 7ZM52.8923 7L56.8 7L56.8 5L52.8923 5L52.8923 7ZM62.6615 7L66.5692 6.99999L66.5692 4.99999L62.6615 5L62.6615 7ZM72.4308 6.99999L76.3385 6.99999L76.3385 4.99999L72.4308 4.99999L72.4308 6.99999ZM82.2 6.99999L86.1077 6.99999L86.1077 4.99999L82.2 4.99999L82.2 6.99999ZM91.9692 6.99999L95.8769 6.99999L95.8769 4.99999L91.9692 4.99999L91.9692 6.99999ZM101.738 6.99999L105.646 6.99999L105.646 4.99999L101.738 4.99999L101.738 6.99999ZM111.508 6.99999L115.415 6.99999L115.415 4.99999L111.508 4.99999L111.508 6.99999ZM121.277 6.99999L125.185 6.99999L125.185 4.99999L121.277 4.99999L121.277 6.99999ZM131.046 6.99999L133 6.99999L133 4.99999L131.046 4.99999L131.046 6.99999Z" fill="#515151"/>
</svg>
